<svg id="_x31_px" enable-background="new 0 0 24 24" height="512" viewBox="0 0 24 24" width="512" xmlns="http://www.w3.org/2000/svg"><path d="m20.25 16.25h-17.5v-10.5c0-1.105.895-2 2-2h13.5c1.105 0 2 .895 2 2z" fill="#eceff1"/><path d="m23.113 4.098c-3.639-4.748-7.586-4.748-11.226 0-.183.238-.183.569 0 .807 1.82 2.374 3.708 3.577 5.613 3.577s3.793-1.203 5.613-3.577c.183-.238.183-.57 0-.807z" fill="#2196f3"/><path d="m20.25 16.75c-.414 0-.75-.336-.75-.75v-5.25c0-.414.336-.75.75-.75s.75.336.75.75v5.25c0 .414-.336.75-.75.75z"/><path d="m2.75 16.75c-.414 0-.75-.336-.75-.75v-10.25c0-1.517 1.233-2.75 2.75-2.75h3.5c.414 0 .75.336.75.75s-.336.75-.75.75h-3.5c-.689 0-1.25.561-1.25 1.25v10.25c0 .414-.336.75-.75.75z"/><path d="m6.25 24c-.094 0-.19-.018-.283-.056-.383-.156-.568-.594-.411-.978l2.75-6.75c.156-.384.594-.568.978-.411.383.156.568.594.411.978l-2.75 6.75c-.119.291-.4.467-.695.467z"/><path d="m16.75 24c-.296 0-.577-.176-.695-.467l-2.75-6.75c-.157-.384.028-.821.411-.978.384-.157.822.027.978.411l2.75 6.75c.157.384-.028.821-.411.978-.093.038-.188.056-.283.056z"/><path d="m11.5 22c-.414 0-.75-.336-.75-.75v-4.75c0-.414.336-.75.75-.75s.75.336.75.75v4.75c0 .414-.336.75-.75.75z"/><path d="m22.25 17h-21.5c-.414 0-.75-.336-.75-.75s.336-.75.75-.75h21.5c.414 0 .75.336.75.75s-.336.75-.75.75z"/><circle cx="17.5" cy="4.5" r="1.5"/><path d="m17.5 9c-2.153 0-4.288-1.36-6.345-4.044-.207-.269-.207-.644 0-.912 4.114-5.367 8.576-5.367 12.69 0 .207.269.207.644 0 .912-2.057 2.684-4.192 4.044-6.345 4.044zm-4.793-4.5c3.269 3.982 6.317 3.982 9.586 0-3.269-3.982-6.317-3.982-9.586 0z"/></svg>